<svg xmlns="http://www.w3.org/2000/svg" width="32" height="32" viewBox="0 0 32 32"><path fill="#00577B" d="M29.064 16.05l-6.193 6.193 6.194 6.195"/><path fill="#0079AA" d="M28.438 15.42h-12.39l6.195 6.196"/><path fill="#0096D3" d="M28.438 14.533L22.243 8.34l-6.195 6.193"/><path fill="#01B0F0" d="M21.17 8.154H8.78l6.195 6.195m14.09-12.835L22.87 7.71l6.194 6.194"/><path fill="#27BCF3" d="M21.17 7.268l-6.194-6.194L8.78 7.268"/><path fill="#4FC9F5" d="M13.905.89H1.515l6.193 6.193"/><path fill="#79201B" d="M2.934 15.954L9.127 9.76l-6.19-6.197"/><path fill="#A42D26" d="M9.756 10.387L3.562 16.58h12.39"/><path fill="#CC382F" d="M3.562 17.47l6.194 6.195 6.193-6.195"/><path fill="#F0453F" d="M2.934 18.097v12.39l6.193-6.193-1.812-1.814m15.904 1.37l-6.194-6.196-6.196 6.195"/><path fill="#F2625D" d="M10.827 24.735l6.195 6.194 6.195-6.196"/><path fill="#F47F7D" d="M18.094 31.113h12.39L24.29 24.92"/><path fill="#464049" d="M31.87 31.243l-1.92-1.918V.443c0-.18-.106-.34-.272-.41-.053-.02-.11-.032-.17-.032-.117 0-.23.047-.312.13l-6.95 6.953L15.29.13 15.2.04h-.04C15.105.017 15.044 0 14.98 0H.458C.338-.002.218.045.132.13.047.216 0 .326 0 .444c0 .12.047.23.13.314l1.917 1.917v28.882c0 .18.107.34.274.41.055.02.11.032.17.032.117 0 .23-.048.314-.13l6.95-6.952 6.952 6.95.094.09h.037c.06.027.12.04.186.04h14.53c.18 0 .34-.104.41-.27.072-.165.033-.356-.094-.483zM29.063 1.516v12.39L22.87 7.713l6.194-6.197zM9.127 9.76l-6.193 6.193V3.563L9.127 9.76zm-.345-1.606h12.39l-6.194 6.195-6.196-6.196zm.974 2.233l6.195 6.194H3.56l6.196-6.193zm7.267 7.265l6.193 6.195H10.828l6.195-6.195zm-.976-2.23h12.39l-6.195 6.194-6.195-6.195zm6.822 6.82l6.192-6.193v12.39l-6.193-6.197zm5.568-7.71h-12.39l6.195-6.193 6.193 6.193h.002zM21.17 7.27H8.78l6.195-6.195 6.195 6.195zM1.514.888h12.39L7.71 7.084 1.513.888zm1.42 29.597v-12.39l4.38 4.38 1.813 1.814-6.19 6.194h-.003zm.628-13.015h12.39l-6.195 6.193-6.195-6.193zm13.46 13.46l-6.195-6.194h12.39l-6.194 6.194h-.002zm1.072.182l6.195-6.193 6.194 6.19h-12.39v.002z"/></svg>